<?xml version="1.0" encoding="utf-8"?>
<!-- Generator: Adobe Illustrator 25.0.0, SVG Export Plug-In . SVG Version: 6.00 Build 0)  -->
<svg version="1.1" id="Layer_1" xmlns="http://www.w3.org/2000/svg" xmlns:xlink="http://www.w3.org/1999/xlink" x="0px" y="0px"
	 viewBox="0 0 512 512" style="enable-background:new 0 0 512 512;" xml:space="preserve">
<style type="text/css">
	.st0{fill:url(#SVGID_1_);}
</style>
<linearGradient id="SVGID_1_" gradientUnits="userSpaceOnUse" x1="0" y1="255.9998" x2="512" y2="255.9998">
	<stop  offset="0" style="stop-color:#00F38D"/>
	<stop  offset="1" style="stop-color:#009EFF"/>
</linearGradient>
<path class="st0" d="M323,170.4c0,36.9-30,67-67,67s-67-30-67-67s30-67,67-67S323,133.5,323,170.4z M512,256
	c0,141.4-114.6,256-256,256S0,397.4,0,256S114.6,0,256,0S512,114.6,512,256z M422.1,403.5c0-71.1-44.9-131.9-107.9-155.6
	c23.5-17.7,38.8-45.8,38.8-77.5c0-53.5-43.5-97-97-97s-97,43.5-97,97c0,31.6,15.2,59.8,38.8,77.5c-63,23.6-107.9,84.4-107.9,155.6
	h30c0-75,61.1-136.1,136.1-136.1c75,0,136.1,61,136.1,136.1H422.1z"/>
</svg>
